<?xml version="1.0" encoding="UTF-8"?>
<svg id="Calque_1" xmlns="http://www.w3.org/2000/svg" version="1.1" viewBox="0 0 588.08 338.4">
  <!-- Generator: Adobe Illustrator 29.8.4, SVG Export Plug-In . SVG Version: 2.1.1 Build 6)  -->
  <defs>
    <style>
      .st0, .st1 {
        fill: none;
      }

      .st2 {
        fill: #fff8f3;
      }

      .st1 {
        stroke: #fff8f3;
        stroke-dasharray: 9 7 0 0;
        stroke-miterlimit: 10;
      }

      .st3 {
        fill: #ef6a9f;
      }
    </style>
  </defs>
  <rect class="st2" x="0" width="588.08" height="338.4"/>
  <g>
    <polygon class="st3" points="460.18 221.1 451.48 221.15 451.47 247.07 460.02 247.07 460.01 238.56 469.17 238.54 469.11 238.54 469.11 229.92 460.18 229.92 460.18 221.1"/>
    <polygon class="st3" points="478.03 247.07 478.01 238.54 469.17 238.54 469.11 247.07 478.03 247.07"/>
    <path class="st3" d="M478.17,211.98h8.79l-.16-142.95h-35.72l-31.58,50-31.35-50h-36.02v177.98l33.48.06-1.37-122.8,1.21.06,30.51,46.63,6.19-.06,28.92-46.42h1.64l-1.25,87.68h.01s8.65.01,8.65.01l.06,8.87h8.86l.07,8.86h8.86l.06,8.58h8.92v-17.56h-8.82l.04-8.96h0ZM460.18,212.19v-8.86h8.86l.07,8.86h-8.93Z"/>
    <polygon class="st3" points="460.18 221.08 460.18 221.06 460.15 221.06 460.18 221.08"/>
  </g>
  <polyline class="st3" points="493.67 235.03 487.75 241.52 494.1 247.19 500.05 240.72"/>
  <g>
    <path class="st2" d="M358.55,217.3v-1.99l4.06-6.28c.29-.46.58-.9.84-1.32.27-.42.48-.85.65-1.31s.25-.95.25-1.49c0-.61-.11-1.08-.32-1.4-.22-.32-.55-.49-1.02-.49-.43,0-.77.12-1.02.36s-.41.56-.5.95-.13.83-.13,1.3v.69h-2.76v-.73c0-.97.15-1.83.43-2.57s.76-1.32,1.39-1.74c.64-.42,1.47-.63,2.5-.63,1.41,0,2.47.38,3.17,1.14.71.76,1.06,1.81,1.06,3.17,0,.68-.1,1.29-.29,1.84s-.44,1.07-.75,1.58c-.32.5-.65,1.02-1.02,1.54l-3.37,5.12h5v2.26h-8.19,0Z"/>
    <path class="st2" d="M373.24,217.55c-.96,0-1.76-.2-2.39-.61s-1.11-.97-1.42-1.69c-.32-.71-.48-1.54-.48-2.48v-7.29c0-.96.15-1.81.46-2.53.31-.72.77-1.29,1.4-1.7s1.44-.61,2.43-.61,1.8.2,2.43.61,1.1.97,1.4,1.7.46,1.57.46,2.53v7.29c0,.93-.16,1.76-.48,2.48-.32.71-.79,1.28-1.42,1.69s-1.43.61-2.39.61ZM373.24,215.13c.42,0,.73-.13.93-.39.2-.26.34-.57.41-.93.07-.36.1-.72.1-1.08v-7.21c0-.38-.03-.76-.09-1.13s-.2-.69-.4-.95c-.2-.26-.53-.39-.95-.39s-.75.13-.95.39c-.2.26-.34.57-.4.95s-.09.75-.09,1.13v7.21c0,.35.04.71.11,1.08.08.36.21.68.41.93.2.26.5.39.91.39h.01Z"/>
    <path class="st2" d="M358.55,240.42v-1.99l4.06-6.28c.29-.46.58-.9.84-1.32.27-.42.48-.85.65-1.31s.25-.95.25-1.49c0-.61-.11-1.08-.32-1.4-.22-.32-.55-.49-1.02-.49-.43,0-.77.12-1.02.36s-.41.56-.5.95-.13.83-.13,1.3v.69h-2.76v-.73c0-.97.15-1.83.43-2.57s.76-1.32,1.39-1.74c.64-.42,1.47-.63,2.5-.63,1.41,0,2.47.38,3.17,1.14.71.76,1.06,1.81,1.06,3.17,0,.68-.1,1.29-.29,1.84s-.44,1.07-.75,1.58c-.32.5-.65,1.02-1.02,1.54l-3.37,5.12h5v2.26h-8.19,0Z"/>
    <path class="st2" d="M373.24,240.65c-1.02,0-1.84-.24-2.48-.71-.64-.48-1.1-1.12-1.39-1.94-.29-.82-.43-1.74-.43-2.75v-5.77c0-1.07.12-2.03.36-2.89.25-.86.68-1.54,1.3-2.04.62-.5,1.5-.75,2.62-.75.96,0,1.74.16,2.35.48s1.04.78,1.33,1.39.43,1.36.43,2.26c0,.04,0,.08,0,.13,0,.05,0,.09,0,.13h-2.7c0-.73-.09-1.28-.27-1.65s-.55-.55-1.14-.55c-.35,0-.64.11-.85.32s-.38.57-.48,1.06c-.11.5-.15,1.16-.15,1.98v1.97c.19-.31.48-.56.86-.74.39-.18.83-.27,1.35-.27.9-.01,1.6.18,2.12.59.51.41.88.97,1.11,1.69.22.72.34,1.53.34,2.46,0,1.07-.13,2.03-.41,2.87s-.72,1.51-1.34,2c-.62.49-1.47.73-2.54.73h0ZM373.26,238.47c.39,0,.69-.12.9-.36s.34-.58.43-1.02.12-.94.12-1.52-.02-1.13-.07-1.6-.18-.84-.38-1.12c-.2-.28-.54-.41-1.02-.41-.23,0-.44.04-.64.13s-.36.2-.5.34-.25.27-.34.41v2.58c0,.46.04.89.13,1.28s.25.71.47.95c.22.24.53.36.9.36h0Z"/>
  </g>
  <polyline class="st3" points="163.46 69.03 163.46 193.65 196.97 193.65 196.97 69.03"/>
  <path class="st3" d="M90.72,190.98h31.84l.11,10.54c.24,13.31,11.84,22.92,23.11,21.49,9.61-1.23,17.68-10.33,17.68-21.49h33.51c-.13,4.65-1.21,24.53-16.75,38.73-18.74,17.12-49.62,17.87-69.54,2.04-18.15-14.42-19.73-36.66-19.95-40.77"/>
  <path class="st3" d="M196.97,201.53c-11.17.22-22.34.45-33.51.67v-13.02c11.17,1.49,22.34,2.98,33.51,4.47v7.88h0Z"/>
  <path class="st3" d="M107.52,184.92c-.37.39-.99.36-1.33-.06-.15-.18-.29-.38-.44-.6-.53-.79-1.14-2.02-1.5-5.08-.15-1.34-.28-3.14-.16-5.3.01-.27-.1-.54-.3-.71-5.15-4.43-10.31-8.86-15.46-13.28-.2-.17-.31-.41-.31-.67v-.79c0-.67.71-1.09,1.3-.76l13.48,7.45c.55.3,1.23-.05,1.3-.67l1.37-12.76c.03-.27-.07-.53-.26-.72l-4.22-4.11c-.15-.15-.25-.35-.26-.57v-.04c-.04-.6.53-1.06,1.11-.9l4.76,1.35c.15.04.31.04.46,0l5.3-1.4c.55-.15,1.1.27,1.1.85h0c0,.24-.1.47-.27.64l-4.4,4.17c-.19.18-.29.44-.27.71l1.04,12.88c.05.62.72.99,1.28.71l14.06-7.29c.58-.3,1.28.12,1.28.78v.83c0,.27-.12.51-.32.68l-15.81,12.85c-.21.17-.32.43-.32.69.01,1.71-.04,3.14-.11,4.21-.22,3.73-.64,4.86-1.19,5.75-.29.47-.6.85-.9,1.17h0Z"/>
  <rect class="st2" x="173.44" y="70.81" width="3.31" height="8.86"/>
  <rect class="st2" x="168.33" y="70.81" width="3.31" height="8.86"/>
  <path class="st2" d="M163.46,70.81h3.08v8.86h-3.08v-8.86Z"/>
  <rect class="st2" x="188.78" y="70.81" width="3.31" height="8.86"/>
  <rect class="st2" x="183.66" y="70.81" width="3.31" height="8.86"/>
  <rect class="st2" x="178.55" y="70.81" width="3.31" height="8.86"/>
  <path class="st2" d="M193.88,70.81h3.08v8.86h-3.08v-8.86Z"/>
  <rect class="st2" x="100.33" y="192.67" width="3.31" height="8.86"/>
  <rect class="st2" x="95.21" y="192.67" width="3.31" height="8.86"/>
  <path class="st2" d="M90.72,192.67h2.7v8.86c-.9,0-1.79,0-2.69,0,0-.37,0-.74,0-1.11-.01-2.6-.01-5.18,0-7.75Z"/>
  <rect class="st2" x="115.66" y="192.67" width="3.31" height="8.86"/>
  <rect class="st2" x="110.55" y="192.67" width="3.31" height="8.86"/>
  <rect class="st2" x="105.44" y="192.67" width="3.31" height="8.86"/>
  <path class="st2" d="M120.77,192.67h1.82c.03,2.95.06,5.91.09,8.86-.64,0-1.27,0-1.91,0v-8.86Z"/>
  <path class="st1" d="M180.21,201.53c0,20.79-15.33,37.65-35.45,37.65s-36.83-14.67-37.66-37.65"/>
  <line class="st1" x1="180.21" y1="197.09" x2="180.21" y2="79.68"/>
  <g>
    <polygon class="st0" points="330.79 298.4 330.79 298.41 330.79 298.41 330.79 298.4 330.79 298.4"/>
    <path class="st3" d="M265.07,264.01c.52-.19,1.04-.36,1.57-.52.26-.08.53-.15.78-.21,1.84-.45,3.66-.55,5.37.2.76-.78,1.16-1.65,1.14-2.4-.04-.95-.78-1.67-2.42-1.63-2.37.06-7.44,1.79-11.88,3.49-.22.08-.44.17-.66.25-1.53.6-2.95,1.18-4.13,1.67-.67.28-1.27.53-1.76.74-.04.02-.1.04-.15.07-1.83.81-10.1,4.72-10.57,5.35-1,1.36.11,2.89,1.59,3.14.08.01.15.02.24.03h0c.8-1.55,10.82-6.82,11.9-6.7.04,0,.06.01.08.03h0c-1.2,4.05-3.05,7.91-4.38,11.9,0,0,0,.01,0,.02-1.3,3.91-2.94,8.91-3.85,12.91-.02.1-.05.2-.07.31v.03c-.35,1.57-1.24,4.66,1.16,5.03.62.1,1.14-.25,1.56-.75.41-.49.71-1.13.91-1.69.06-.19.12-.36.16-.53.08-.3.11-.58.1-.84-.01-.78-.3-1.42-.26-2.31.11-2.26,1.81-7.2,2.58-9.56v-.02c1.81-5.58,4.31-10.94,6.45-16.39,1.44-.43,2.97-1.08,4.54-1.64h0Z"/>
    <path class="st3" d="M349.32,283.19c-.29-.51-.53-.58-1.09-.49-1.24.2-5.24,3.47-7.31,4.14-1.04.34-3.07.93-3.94.09h0c-.2-.18-.27-.54-.36-.81,0-.1.06-.21.15-.34.67-.87,3.32-2.26,4.15-2.96.28-.23.6-.52.95-.84,1.86-1.74,4.27-4.65,2.9-6.72-2.47-3.73-6.78.88-8.79,3.99-.36.56-.65,1.07-.84,1.48-4.36,9.31,3.24,12.39,10.26,7.24.08-.06.17-.13.27-.21,1.17-.94,3.93-3.56,3.64-4.58h0ZM342.61,276.6c-.29,2.46-2.6,4.33-4.7,5.37-.53-.67,3.24-5.65,4.7-5.37Z"/>
    <path class="st3" d="M330.79,298.4l-.29-1.8c-4.88-1.74-10.16-1.95-15.32-1.86-17.24.33-34.32,4.08-50.95,8.23-.91.31-1.39,1.18-1.24,1.94.08.44.38.85.93,1.1,1.36.62,7.29-1.74,9.2-2.22,15.04-3.8,37.57-8.03,52.8-5.97.99.13,4.37,1.38,4.87.58h0s0,0,0,0Z"/>
    <path class="st3" d="M328.82,275.11c-3.59,2.48-2.19,5.47-3.92,7.85-.67.92-3.93,4.17-5.01,4.07-.23-1.18.41-3.03.83-4.22.95-2.75,4.62-6.96-.27-7.5-2.61,4.34-5.65,8.67-9.47,12.06-.07-2.58.92-5.35,1.85-7.73.6-1.54,2.52-3.13.69-4.39-1.25-.86-1.72.86-2.91,1.84-.43.36-3.01,2.12-3.33,1.88-.25-2.54-2.72-3.52-4.83-4.32-3.64,2.33-3.91,6.68-6.43,9.7-.76.91-4.74,4.76-5.86,4h.03c-1.52-3.89.8-5.29,2.6-7.92,3.08-4.49,7.88-12.31,8.99-17.57.36-1.72.35-2.73-1.53-3.24-1.51-.41-2.75,1.28-3.69,2.38-2.56,3-5.21,8.46-6.66,12.17-1.04,2.66-1.69,6.97-2.7,9.07-.67,1.37-2.97,2.84-3.94,4.13-.93.39-.42-2.33-.35-2.7.39-1.89,2.73-5.2,2.82-6.26.08-.84-1.62-1.81-2.49-1.14-.64.49-3.62,5.8-4.86,7.25-.75.87-1.98,2.16-2.85,2.87-.38.31-.54.82-1.18.67,0-1.62.68-3.13,1.28-4.6s2.74-4.54,2.94-5.49c.23-1.08-.98-2.24-1.98-1.98-.33.08-1.72,1.33-2.37,1.69-1.5.82-3.09,1.49-4.6,2.3,1.23-2.73-4.14-6.17-5.89-4.7-2.05,1.73-6.05,10.87-5.82,13.53.29,3.31,4.01,3.73,6.29,1.74,2.4-2.1,3.3-5.78,4.91-7.52.74-.79,2.98-1.48,4.01-2.04-.17,2.56-3.49,7.72-1.52,9.93,2.73,3.06,6.17-2.51,7.91-4.21.66,2.01,1.58,5.11,4.33,3.65.76-.4,2.82-3.35,3.24-2.98.06,1.67,1.21,3.66,2.95,3.97,3.31.57,5.47-3.96,6.3-3.97.94,5.75,5.21,3.99,7.71.32.77-1.14,2.23-5.22,2.62-5.62.23-.23,2.93-1.32,2.61-.25-.68,2.21-2.38,5.56-.67,7.75,3.01,3.86,6.63-3.21,8.25-5.22-.23,5.51,2.09,8.14,6.22,3.36.32,4.18,7.27,3.06,9.03.12,2.54-4.24-4.06-5.81-3.52-7.85.17-.64,2.24-2.68,2.89-2.88,1.18-.36,4.29,1.79,3.66-1.57-.56-2.96-4.65-1.55-6.31-.39h0ZM299.22,263.83c-.11,1.78-1.05,3.78-1.83,5.39-1.49,3.09-3.72,6.78-5.9,9.4,1.65-5.1,4.07-10.89,7.73-14.79h0ZM260.89,289.53c-.69-.71,1.47-6.59,2.19-7.52.46-.6.3-.22.65,0,.71.45,1.21,1.06,2.19,1.09.53.78-3.24,7.34-5.04,6.45h0ZM266.78,278.61l.16,2.02c-2.84.19-1.3-3.7-.16-2.02ZM299.74,288.04c-.97-.21.17-3.9.41-4.63.32-.95.9-1.77,1.11-2.76h0l2.7,2.17c-.28,1.02-3.24,5.43-4.21,5.22h0ZM303.77,279.62c-1.44-.56.57-3.24.5,0h-.5ZM324.47,286.66c-.55-.8,1.95-2.72,2.5-3.26,5.56,2.52,1.64,5.28-2.5,3.26Z"/>
  </g>
  <path class="st3" d="M322.39,181.01c-16.55-9.98-33.09-19.95-49.64-29.93-9.83,4.11-17.26,3.53-21.46,2.7-20.06-3.99-36.26-27.86-38.2-59.51-.11-.15-.67-.99-.46-2.11.13-.71.53-1.37,1.16-1.82l30.46-21.25,78.14,111.93h0Z"/>
  <rect class="st3" x="308.12" y="160.79" width="15.34" height="49.81" transform="translate(-41.38 104.24) rotate(-17.61)"/>
  <rect class="st3" x="212.13" y="143.4" width="57.12" height="16.02" transform="translate(-43.34 165.04) rotate(-34.92)"/>
  <rect class="st3" x="212.16" y="69.05" width="32.07" height="124.63"/>
  <rect class="st3" x="299.86" y="69.05" width="35.83" height="177.98"/>
  <g>
    <path class="st3" d="M249.89,211.53h0c1.43,0,2.58,1.16,2.58,2.59v11.76c0,1.43-1.16,2.59-2.58,2.59h0c-1.43,0-2.58-1.16-2.58-2.59v-11.76c0-1.43,1.16-2.59,2.58-2.59Z"/>
    <rect class="st3" x="247.31" y="217.63" width="5.16" height="10.83"/>
  </g>
  <g>
    <path class="st3" d="M292.75,211.53h0c1.43,0,2.58,1.16,2.58,2.59v11.76c0,1.43-1.16,2.59-2.58,2.59h0c-1.43,0-2.58-1.16-2.58-2.59v-11.76c0-1.43,1.16-2.59,2.58-2.59Z"/>
    <rect class="st3" x="290.17" y="217.63" width="5.16" height="10.83"/>
  </g>
  <g>
    <path class="st3" d="M271.52,211.53h0c2.63,0,4.76,2.13,4.76,4.76v7.41c0,2.63-2.13,4.76-4.76,4.76h0c-2.63,0-4.76-2.13-4.76-4.76v-7.41c0-2.63,2.13-4.76,4.76-4.76Z"/>
    <rect class="st3" x="266.76" y="217.63" width="9.51" height="10.83"/>
  </g>
  <rect class="st3" x="232.52" y="204" width="70.18" height="1.74"/>
  <rect class="st3" x="212.16" y="122.4" width="31.03" height="124.63"/>
  <path class="st3" d="M232.62,149.34v54.67h77.82v-54.67s-77.82,0-77.82,0ZM265.12,165.28c.27-.76.81-1.98,1.9-3.16,1.41-1.53,2.99-2.19,3.82-2.46v-8.62h1.58v8.61h.09c.8.28,2.32.95,3.69,2.42,1.12,1.21,1.67,2.45,1.93,3.21h-13.02ZM265.05,167.11h13.17v7.37c-1.93-.28-4.19-.47-6.7-.47-2.42,0-4.59.2-6.47.47v-7.37h0ZM243.2,202.31c.14-34.67,56.52-34.65,56.65,0h-56.65Z"/>
</svg>