<svg id="10015.io" viewBox="350 15 700 1024" xmlns="http://www.w3.org/2000/svg" xmlns:xlink="http://www.w3.org/1999/xlink" >
  <path 
  fill="#fff4" 
  d="M 1316.655 441.293 C 1254.311 481.43 1225.875 530.385 1231.341 588.155 C 1236.811 645.928 1187.045 674.813 1082.045 674.813 C 977.045 674.813 890.093 681.808 821.187 695.793 C 752.281 709.78 682.83 710.692 612.828 698.529 C 542.829 686.369 466.269 679.678 383.142 678.461 C 300.017 677.247 228.38 660.827 168.221 629.203 C 108.065 597.582 28.367 584.405 -19.758 542.445 C -67.882 500.484 -65.839 430.958 -64.747 381.09 C -63.651 331.226 -43.419 283.793 -4.045 238.79 C 35.33 193.791 74.33 116.468 154.172 96.4 C 234.018 76.332 322.986 91.929 379.861 53.619 C 436.737 15.307 506.736 8.008 589.86 31.726 C 672.986 55.442 754.469 65.477 834.312 61.827 C 914.157 58.18 1003.093 42.968 1073.093 66.684 C 1143.093 90.402 1214.899 128.932 1222.554 175.755 C 1230.214 222.582 1245.671 204.585 1320.043 242.288 C 1394.419 279.993 1378.997 401.158 1316.655 441.293 Z" style=""></path>
</svg>